<svg width="24" height="24" viewBox="0 0 24 24" fill="none" xmlns="http://www.w3.org/2000/svg">
              <path d="M13.4852 6.53531L8.29975 11.7208C7.99376 12.0268 7.79526 12.4237 7.73407 12.8521L7.49836 14.502C7.3098 15.822 8.44117 16.9533 9.76111 16.7648L11.411 16.5291C11.8394 16.4679 12.2364 16.2694 12.5424 15.9634L17.7278 10.7779C18.5089 9.9969 18.5089 8.73057 17.7278 7.94952L16.3136 6.53531C15.5326 5.75426 14.2662 5.75426 13.4852 6.53531Z" fill="#CCF3EE" stroke="#28303F" stroke-width="1.5" stroke-linecap="round"/>
              <path d="M19.8496 4.41406L17.0212 7.24249" stroke="#28303F" stroke-width="1.5" stroke-linecap="round" stroke-linejoin="round"/>
              <path d="M18.4351 3L21.2635 5.82843" stroke="#28303F" stroke-width="1.5" stroke-linecap="round" stroke-linejoin="round"/>
              <path d="M9.24286 10.7781L16.3139 12.1923" stroke="#28303F" stroke-width="1.5" stroke-linecap="round" stroke-linejoin="round"/>
              <path d="M7.82859 16.435L2.99999 21" stroke="#28303F" stroke-width="1.5" stroke-linecap="round" stroke-linejoin="round"/>
              </svg>