<svg
   width="40"
   height="40"
   viewBox="0 0 40 40"
   fill="none"
   xmlns="http://www.w3.org/2000/svg">
  <path
     d="m 15.327037,25.004723 v -1.112161 c 0,-0.589946 -0.234333,-1.155702 -0.651504,-1.572817 -0.417116,-0.417172 -0.982872,-0.651504 -1.572818,-0.651504 H 8.6540732 c -0.5899456,0 -1.1557017,0.234332 -1.5728175,0.651504 -0.4171714,0.417115 -0.6515036,0.982871 -0.6515036,1.572817 v 1.112161"
     fill="#ccf3ee"
     id="path526"
     style="stroke-width:0.55608" />
  <path
     d="m 15.327037,25.004723 v -1.112161 c 0,-0.589946 -0.234333,-1.155702 -0.651504,-1.572817 -0.417116,-0.417172 -0.982872,-0.651504 -1.572818,-0.651504 H 8.6540732 c -0.5899456,0 -1.1557017,0.234332 -1.5728175,0.651504 -0.4171714,0.417115 -0.6515036,0.982871 -0.6515036,1.572817 v 1.112161"
     stroke="#5c5c5c"
     stroke-width="1.11216"
     stroke-linecap="round"
     stroke-linejoin="round"
     id="path528" />
  <path
     d="m 10.878394,19.44392 c 1.228437,0 2.224321,-0.995884 2.224321,-2.224321 0,-1.228437 -0.995884,-2.224322 -2.224321,-2.224322 -1.2284366,0 -2.2243208,0.995885 -2.2243208,2.224322 0,1.228437 0.9958842,2.224321 2.2243208,2.224321 z"
     fill="#ccf3ee"
     stroke="#5c5c5c"
     stroke-width="1.11216"
     stroke-linecap="round"
     stroke-linejoin="round"
     id="path530" />
  <path
     d="m 33.570248,25.004723 v -1.112161 c 0,-0.589946 -0.234332,-1.155702 -0.651504,-1.572817 -0.417116,-0.417172 -0.982872,-0.651504 -1.572817,-0.651504 h -4.448642 c -0.589946,0 -1.155702,0.234332 -1.572818,0.651504 -0.417171,0.417115 -0.651504,0.982871 -0.651504,1.572817 v 1.112161"
     fill="#ccf3ee"
     id="path532"
     style="stroke-width:0.55608" />
  <path
     d="m 33.570248,25.004723 v -1.112161 c 0,-0.589946 -0.234332,-1.155702 -0.651504,-1.572817 -0.417116,-0.417172 -0.982872,-0.651504 -1.572817,-0.651504 h -4.448642 c -0.589946,0 -1.155702,0.234332 -1.572818,0.651504 -0.417171,0.417115 -0.651504,0.982871 -0.651504,1.572817 v 1.112161"
     stroke="#5c5c5c"
     stroke-width="1.11216"
     stroke-linecap="round"
     stroke-linejoin="round"
     id="path534" />
  <path
     d="m 29.121606,19.44392 c 1.228437,0 2.224321,-0.995884 2.224321,-2.224321 0,-1.228437 -0.995884,-2.224322 -2.224321,-2.224322 -1.228437,0 -2.224321,0.995885 -2.224321,2.224322 0,1.228437 0.995884,2.224321 2.224321,2.224321 z"
     fill="#ccf3ee"
     stroke="#5c5c5c"
     stroke-width="1.11216"
     stroke-linecap="round"
     stroke-linejoin="round"
     id="path536" />
  <path
     d="M 28,29 V 27 C 28,25.9391 27.5786,24.9217 26.8284,24.1716 26.0783,23.4214 25.0609,23 24,23 h -8 c -1.0609,0 -2.0783,0.4214 -2.8284,1.1716 C 12.4214,24.9217 12,25.9391 12,27 v 2"
     fill="#ccf3ee"
     id="path182" />
  <path
     d="m 28.553279,29.200793 v -2.186735 c 0,-1.159954 -0.450543,-2.272347 -1.252627,-3.092481 -0.801977,-0.820244 -1.88974,-1.280989 -3.024012,-1.280989 h -8.55328 c -1.134272,0 -2.222035,0.460745 -3.024012,1.280989 -0.802084,0.820134 -1.252627,1.932527 -1.252627,3.092481 v 2.186735"
     stroke="#5c5c5c"
     stroke-width="2.1624"
     stroke-linecap="round"
     stroke-linejoin="round"
     id="path1286"
     style="stroke:#ffffff;stroke-opacity:1" />
  <path
     d="M 28,29 V 27 C 28,25.9391 27.5786,24.9217 26.8284,24.1716 26.0783,23.4214 25.0609,23 24,23 h -8 c -1.0609,0 -2.0783,0.4214 -2.8284,1.1716 C 12.4214,24.9217 12,25.9391 12,27 v 2"
     stroke="#5c5c5c"
     stroke-width="2"
     stroke-linecap="round"
     stroke-linejoin="round"
     id="path184" />
  <path
     d="m 20,19 c 2.2091,0 4,-1.7909 4,-4 0,-2.2091 -1.7909,-4 -4,-4 -2.2091,0 -4,1.7909 -4,4 0,2.2091 1.7909,4 4,4 z"
     fill="#ccf3ee"
     stroke="#5c5c5c"
     stroke-width="2"
     stroke-linecap="round"
     stroke-linejoin="round"
     id="path186" />
</svg>
