<svg width="40" height="40" viewBox="0 0 40 40" fill="none" xmlns="http://www.w3.org/2000/svg">
                <path d="M10 11H16C17.0609 11 18.0783 11.4214 18.8284 12.1716C19.5786 12.9217 20 13.9391 20 15V29C20 28.2044 19.6839 27.4413 19.1213 26.8787C18.5587 26.3161 17.7956 26 17 26H10V11Z" fill="#CCF3EE" stroke="#5C5C5C" stroke-width="2" stroke-linecap="round" stroke-linejoin="round"/>
                <path d="M30 11H24C22.9391 11 21.9217 11.4214 21.1716 12.1716C20.4214 12.9217 20 13.9391 20 15V29C20 28.2044 20.3161 27.4413 20.8787 26.8787C21.4413 26.3161 22.2044 26 23 26H30V11Z" fill="#CCF3EE" stroke="#5C5C5C" stroke-width="2" stroke-linecap="round" stroke-linejoin="round"/>
                </svg>