<svg width="40" height="40" viewBox="0 0 40 40" fill="none" xmlns="http://www.w3.org/2000/svg">
              <path d="M27.4 23C27.2669 23.3016 27.2272 23.6362 27.286 23.9606C27.3448 24.285 27.4995 24.5843 27.73 24.82L27.79 24.88C27.976 25.0657 28.1235 25.2863 28.2241 25.5291C28.3248 25.7719 28.3766 26.0322 28.3766 26.295C28.3766 26.5578 28.3248 26.8181 28.2241 27.0609C28.1235 27.3037 27.976 27.5243 27.79 27.71C27.6043 27.896 27.3837 28.0435 27.1409 28.1441C26.8981 28.2448 26.6378 28.2966 26.375 28.2966C26.1122 28.2966 25.8519 28.2448 25.6091 28.1441C25.3663 28.0435 25.1457 27.896 24.96 27.71L24.9 27.65C24.6643 27.4195 24.365 27.2648 24.0406 27.206C23.7162 27.1472 23.3816 27.1869 23.08 27.32C22.7842 27.4468 22.532 27.6572 22.3543 27.9255C22.1766 28.1938 22.0813 28.5082 22.08 28.83V29C22.08 29.5304 21.8693 30.0391 21.4942 30.4142C21.1191 30.7893 20.6104 31 20.08 31C19.5496 31 19.0409 30.7893 18.6658 30.4142C18.2907 30.0391 18.08 29.5304 18.08 29V28.91C18.0723 28.579 17.9651 28.258 17.7725 27.9887C17.5799 27.7194 17.3107 27.5143 17 27.4C16.6984 27.2669 16.3638 27.2272 16.0394 27.286C15.715 27.3448 15.4157 27.4995 15.18 27.73L15.12 27.79C14.9343 27.976 14.7137 28.1235 14.4709 28.2241C14.2281 28.3248 13.9678 28.3766 13.705 28.3766C13.4422 28.3766 13.1819 28.3248 12.9391 28.2241C12.6963 28.1235 12.4757 27.976 12.29 27.79C12.104 27.6043 11.9565 27.3837 11.8559 27.1409C11.7552 26.8981 11.7034 26.6378 11.7034 26.375C11.7034 26.1122 11.7552 25.8519 11.8559 25.6091C11.9565 25.3663 12.104 25.1457 12.29 24.96L12.35 24.9C12.5805 24.6643 12.7352 24.365 12.794 24.0406C12.8528 23.7162 12.8131 23.3816 12.68 23.08C12.5532 22.7842 12.3428 22.532 12.0745 22.3543C11.8062 22.1766 11.4918 22.0813 11.17 22.08H11C10.4696 22.08 9.96086 21.8693 9.58579 21.4942C9.21071 21.1191 9 20.6104 9 20.08C9 19.5496 9.21071 19.0409 9.58579 18.6658C9.96086 18.2907 10.4696 18.08 11 18.08H11.09C11.421 18.0723 11.742 17.9651 12.0113 17.7725C12.2806 17.5799 12.4857 17.3107 12.6 17C12.7331 16.6984 12.7728 16.3638 12.714 16.0394C12.6552 15.715 12.5005 15.4157 12.27 15.18L12.21 15.12C12.024 14.9343 11.8765 14.7137 11.7759 14.4709C11.6752 14.2281 11.6234 13.9678 11.6234 13.705C11.6234 13.4422 11.6752 13.1819 11.7759 12.9391C11.8765 12.6963 12.024 12.4757 12.21 12.29C12.3957 12.104 12.6163 11.9565 12.8591 11.8559C13.1019 11.7552 13.3622 11.7034 13.625 11.7034C13.8878 11.7034 14.1481 11.7552 14.3909 11.8559C14.6337 11.9565 14.8543 12.104 15.04 12.29L15.1 12.35C15.3357 12.5805 15.635 12.7352 15.9594 12.794C16.2838 12.8528 16.6184 12.8131 16.92 12.68H17C17.2958 12.5532 17.548 12.3428 17.7257 12.0745C17.9034 11.8062 17.9987 11.4918 18 11.17V11C18 10.4696 18.2107 9.96086 18.5858 9.58579C18.9609 9.21071 19.4696 9 20 9C20.5304 9 21.0391 9.21071 21.4142 9.58579C21.7893 9.96086 22 10.4696 22 11V11.09C22.0013 11.4118 22.0966 11.7262 22.2743 11.9945C22.452 12.2628 22.7042 12.4732 23 12.6C23.3016 12.7331 23.6362 12.7728 23.9606 12.714C24.285 12.6552 24.5843 12.5005 24.82 12.27L24.88 12.21C25.0657 12.024 25.2863 11.8765 25.5291 11.7759C25.7719 11.6752 26.0322 11.6234 26.295 11.6234C26.5578 11.6234 26.8181 11.6752 27.0609 11.7759C27.3037 11.8765 27.5243 12.024 27.71 12.21C27.896 12.3957 28.0435 12.6163 28.1441 12.8591C28.2448 13.1019 28.2966 13.3622 28.2966 13.625C28.2966 13.8878 28.2448 14.1481 28.1441 14.3909C28.0435 14.6337 27.896 14.8543 27.71 15.04L27.65 15.1C27.4195 15.3357 27.2648 15.635 27.206 15.9594C27.1472 16.2838 27.1869 16.6184 27.32 16.92V17C27.4468 17.2958 27.6572 17.548 27.9255 17.7257C28.1938 17.9034 28.5082 17.9987 28.83 18H29C29.5304 18 30.0391 18.2107 30.4142 18.5858C30.7893 18.9609 31 19.4696 31 20C31 20.5304 30.7893 21.0391 30.4142 21.4142C30.0391 21.7893 29.5304 22 29 22H28.91C28.5882 22.0013 28.2738 22.0966 28.0055 22.2743C27.7372 22.452 27.5268 22.7042 27.4 23V23Z" fill="#CCF3EE" stroke="#5C5C5C" stroke-width="2" stroke-linecap="round" stroke-linejoin="round"/>
              <path d="M20 23C21.6569 23 23 21.6569 23 20C23 18.3431 21.6569 17 20 17C18.3431 17 17 18.3431 17 20C17 21.6569 18.3431 23 20 23Z" stroke="#5C5C5C" stroke-width="2" stroke-linecap="round" stroke-linejoin="round"/>
              </svg>